<?xml version="1.0" encoding="UTF-8" standalone="no"?>
<!-- Generator: Adobe Illustrator 22.0.0, SVG Export Plug-In . SVG Version: 6.00 Build 0)  -->

<svg
   xmlns:dc="http://purl.org/dc/elements/1.1/"
   xmlns:cc="http://creativecommons.org/ns#"
   xmlns:rdf="http://www.w3.org/1999/02/22-rdf-syntax-ns#"
   xmlns:svg="http://www.w3.org/2000/svg"
   xmlns="http://www.w3.org/2000/svg"
   xmlns:sodipodi="http://sodipodi.sourceforge.net/DTD/sodipodi-0.dtd"
   xmlns:inkscape="http://www.inkscape.org/namespaces/inkscape"
   version="1.1"
   id="Layer_1"
   x="0px"
   y="0px"
   viewBox="0 0 2560 1440"
   style="enable-background:new 0 0 2560 1440;"
   xml:space="preserve"
   sodipodi:docname="BlueToken.svg"
   inkscape:version="0.92.2 (5c3e80d, 2017-08-06)"
   inkscape:export-filename="M:\Users\cthomas\Documents\School\ESOF 322\Team11\src\main\resources\BlueToken.png"
   inkscape:export-xdpi="29.761906"
   inkscape:export-ydpi="29.761906"><metadata
     id="metadata25"><rdf:RDF><cc:Work
         rdf:about=""><dc:format>image/svg+xml</dc:format><dc:type
           rdf:resource="http://purl.org/dc/dcmitype/StillImage" /></cc:Work></rdf:RDF></metadata><defs
     id="defs23"><filter
       style="color-interpolation-filters:sRGB;"
       inkscape:label="Color Shift"
       id="filter157"><feColorMatrix
         type="hueRotate"
         values="52"
         result="color1"
         id="feColorMatrix153" /><feColorMatrix
         type="saturate"
         values="0.65"
         result="color2"
         id="feColorMatrix155" /></filter><filter
       style="color-interpolation-filters:sRGB;"
       inkscape:label="Color Shift"
       id="filter428"><feColorMatrix
         type="hueRotate"
         values="75"
         result="color1"
         id="feColorMatrix424" /><feColorMatrix
         type="saturate"
         values="1"
         result="color2"
         id="feColorMatrix426" /></filter><filter
       style="color-interpolation-filters:sRGB;"
       inkscape:label="Color Shift"
       id="filter434"><feColorMatrix
         type="hueRotate"
         values="75"
         result="color1"
         id="feColorMatrix430" /><feColorMatrix
         type="saturate"
         values="1"
         result="color2"
         id="feColorMatrix432" /></filter><filter
       style="color-interpolation-filters:sRGB;"
       inkscape:label="Color Shift"
       id="filter440"><feColorMatrix
         type="hueRotate"
         values="75"
         result="color1"
         id="feColorMatrix436" /><feColorMatrix
         type="saturate"
         values="1"
         result="color2"
         id="feColorMatrix438" /></filter><filter
       style="color-interpolation-filters:sRGB;"
       inkscape:label="Color Shift"
       id="filter446"><feColorMatrix
         type="hueRotate"
         values="75"
         result="color1"
         id="feColorMatrix442" /><feColorMatrix
         type="saturate"
         values="1"
         result="color2"
         id="feColorMatrix444" /></filter><filter
       style="color-interpolation-filters:sRGB;"
       inkscape:label="Color Shift"
       id="filter452"><feColorMatrix
         type="hueRotate"
         values="75"
         result="color1"
         id="feColorMatrix448" /><feColorMatrix
         type="saturate"
         values="1"
         result="color2"
         id="feColorMatrix450" /></filter><filter
       style="color-interpolation-filters:sRGB;"
       inkscape:label="Color Shift"
       id="filter458"><feColorMatrix
         type="hueRotate"
         values="75"
         result="color1"
         id="feColorMatrix454" /><feColorMatrix
         type="saturate"
         values="1"
         result="color2"
         id="feColorMatrix456" /></filter><filter
       style="color-interpolation-filters:sRGB;"
       inkscape:label="Color Shift"
       id="filter464"><feColorMatrix
         type="hueRotate"
         values="75"
         result="color1"
         id="feColorMatrix460" /><feColorMatrix
         type="saturate"
         values="1"
         result="color2"
         id="feColorMatrix462" /></filter></defs><sodipodi:namedview
     pagecolor="#ffffff"
     bordercolor="#666666"
     borderopacity="1"
     objecttolerance="10"
     gridtolerance="10"
     guidetolerance="10"
     inkscape:pageopacity="0"
     inkscape:pageshadow="2"
     inkscape:window-width="2560"
     inkscape:window-height="1387"
     id="namedview21"
     showgrid="false"
     inkscape:zoom="0.8875"
     inkscape:cx="653.3917"
     inkscape:cy="616.73405"
     inkscape:window-x="-8"
     inkscape:window-y="-8"
     inkscape:window-maximized="1"
     inkscape:current-layer="g18" /><style
     type="text/css"
     id="style2">
	.st0{fill:#75A735;}
	.st1{fill:#8BC53F;}
	.st2{fill:#B0D46E;}
</style><g
     id="g18"
     style="filter:url(#filter157)"><path
       class="st0"
       d="M1311.4,751.4c-19-25.2,0-73.7,0-73.7h-31.5h-31.5c0,0,19,48.6,0,73.7c-19,25.2-41,41.7-41,76.4h72.5h72.5   C1352.4,793.2,1330.4,776.6,1311.4,751.4z"
       id="path4"
       inkscape:export-xdpi="71.428574"
       inkscape:export-ydpi="71.428574"
       style="filter:url(#filter464)" /><circle
       class="st1"
       cx="1279.9"
       cy="637.9"
       r="52.5"
       id="circle6"
       inkscape:export-xdpi="71.428574"
       inkscape:export-ydpi="71.428574"
       style="filter:url(#filter458)" /><path
       class="st1"
       d="M1358.4,854.2h-157c-2.8,0-5-2.3-5-5v-16.3c0-2.8,2.3-5,5-5h157c2.8,0,5,2.3,5,5v16.3   C1363.4,852,1361.1,854.2,1358.4,854.2z"
       id="path8"
       inkscape:export-xdpi="71.428574"
       inkscape:export-ydpi="71.428574"
       style="filter:url(#filter452)" /><path
       class="st1"
       d="M1304.1,715.6h-48.5c-4.3,0-7.8-3.5-7.8-7.8l0,0c0-4.3,3.5-7.8,7.8-7.8h48.5c4.3,0,7.8,3.5,7.8,7.8l0,0   C1311.9,712.1,1308.4,715.6,1304.1,715.6z"
       id="path10"
       inkscape:export-xdpi="71.428574"
       inkscape:export-ydpi="71.428574"
       style="filter:url(#filter446)" /><path
       class="st1"
       d="M1304.1,740.6h-48.5c-4.3,0-7.8-3.5-7.8-7.8l0,0c0-4.3,3.5-7.8,7.8-7.8h48.5c4.3,0,7.8,3.5,7.8,7.8l0,0   C1311.9,737.1,1308.4,740.6,1304.1,740.6z"
       id="path12"
       inkscape:export-xdpi="71.428574"
       inkscape:export-ydpi="71.428574"
       style="filter:url(#filter440)" /><path
       class="st2"
       d="M1263.8,610.4c4.4,4.4,2.3,13.6-4.6,20.5c-7,6.9-16.2,8.9-20.6,4.5c-4.4-4.4-2.3-13.6,4.6-20.5   C1250.2,608,1259.4,606,1263.8,610.4z"
       id="path14"
       inkscape:export-xdpi="71.428574"
       inkscape:export-ydpi="71.428574"
       style="filter:url(#filter434)" /><path
       class="st2"
       d="M1278.8,597c2,2,1.1,6.3-2.1,9.5c-3.2,3.2-7.4,4.1-9.5,2.1c-2-2-1.1-6.3,2.1-9.5   C1272.5,595.8,1276.8,594.9,1278.8,597z"
       id="path16"
       inkscape:export-xdpi="71.428574"
       inkscape:export-ydpi="71.428574"
       style="filter:url(#filter428)" /></g></svg>